<svg xmlns="http://www.w3.org/2000/svg" width="24" height="24" style="-ms-transform:rotate(360deg);-webkit-transform:rotate(360deg);transform:rotate(360deg)"><path fill="#fff" d="M9.3428052 11.326831V8.0141938a2.2143304 2.2143304 0 0 1 4.4286608 0v3.3126372c1.071734-.717442 1.771461-1.930896 1.771461-3.3126372 0-2.2054754-1.780318-3.9857939-3.985794-3.9857939-2.2054708 0-3.9857937 1.7803185-3.9857937 3.9857939 0 1.3817412.6997278 2.5951952 1.7714659 3.3126372zm8.7156038 4.100939-4.021225-2.001752c-.150564-.062-.310016-.09741-.478294-.09741h-.673157V8.0142117c0-.73516-.59344-1.3285995-1.3286-1.3285995-.735155 0-1.3286.5934395-1.3286 1.3285995v9.5127633c-3.1886343-.673157-3.135488-.6643-3.2506331-.6643-.2745974 0-.5225837.115149-.6997276.292284l-.699732.708585 4.3755182 4.375518c.2391335.239135.5757245.389743.9388755.389743h6.01412c.664304 0 1.178027-.487151 1.275458-1.133737l.6643-4.667808c.0089-.062.01787-.123988.01787-.177139 0-.549155-.336592-1.027449-.80602-1.222311z" style="stroke-width:.885733"/><path fill="rgba(0, 0, 0, 0)" d="M1.3712142 1.3712021H22.628786V22.628773H1.3712142Z" style="stroke-width:.885733"/></svg>