<?xml version="1.0" encoding="utf-8"?>
<!-- Generator: Adobe Illustrator 16.0.0, SVG Export Plug-In . SVG Version: 6.00 Build 0)  -->
<!DOCTYPE svg PUBLIC "-//W3C//DTD SVG 1.1//EN" "http://www.w3.org/Graphics/SVG/1.1/DTD/svg11.dtd">
<svg version="1.1" id="图层_1" xmlns="http://www.w3.org/2000/svg" xmlns:xlink="http://www.w3.org/1999/xlink" x="0px" y="0px"
	 width="599.946px" height="300.482px" viewBox="-0.002 35.741 599.946 300.482"
	 enable-background="new -0.002 35.741 599.946 300.482" xml:space="preserve">
<image overflow="visible" enable-background="new    " width="600" height="372" xlink:href="1D402A30.png"  transform="matrix(0.9999 0 0 0.8077 -0.002 35.7415)">
</image>
<path fill="#575E75" d="M326.413,211.121c-1.751,0-3.547-0.422-5.186-1.309c-4.855-2.645-6.473-8.406-3.595-12.87
	c5.476-8.536,5.476-19.122,0-27.647c-2.878-4.478-1.259-10.237,3.595-12.881c4.908-2.617,11.153-1.142,13.998,3.306
	c9.268,14.433,9.268,32.354,0,46.787C333.329,209.481,329.91,211.121,326.413,211.121z M357.37,223.562
	c-1.488,0-3.036-0.392-4.417-1.225c-4.14-2.484-5.521-7.89-3.068-12.085c9.771-16.74,9.771-37.548,0-54.274
	c-2.452-4.19-1.072-9.61,3.068-12.096c4.15-2.443,9.474-1.075,11.931,3.105c13.013,22.272,13.013,49.973,0,72.246
	C363.252,222.027,360.352,223.562,357.37,223.562z M303.222,136.005v87.989c0,10.424-12.745,15.882-20.692,8.857l-17.154-15.193
	c-6.075-5.37-13.991-8.351-22.22-8.351h-3c-8.199,0-14.854-6.438-14.854-14.397v-29.662c0-7.948,6.654-14.398,14.854-14.398h2.834
	c8.229,0,16.145-2.981,22.22-8.353l17.318-15.335C290.478,120.141,303.222,125.596,303.222,136.005z"/>
</svg>
