<svg xmlns="http://www.w3.org/2000/svg" id="Layer_1" width="112" height="112" data-name="Layer 1" version="1.1"><defs id="defs1"><style id="style1">.cls-2{fill:#ccb3ff}.cls-5{fill:none;stroke:#000;stroke-linecap:round;stroke-linejoin:round}</style></defs><circle id="circle1" cx="56" cy="56" r="55.5" class="cls-2" style="opacity:.25;fill:#855cd6;fill-opacity:1"/><path id="path1" d="M56 1A55 55 0 1 1 1 56 55.06 55.06 0 0 1 56 1m0-1a56 56 0 1 0 56 56A56 56 0 0 0 56 0Z" style="opacity:.25;fill:#855cd6;fill-opacity:1"/><g id="g24" style="opacity:.15"><path id="line1" d="M56 14.86v5.87" class="cls-5"/><path id="line2" d="M56 91.27v5.87" class="cls-5"/><path id="line3" d="m45.35 16.26 1.52 5.68" class="cls-5"/><path id="line4" d="m65.13 90.06 1.52 5.68" class="cls-5"/><path id="line5" d="m35.43 20.37 2.94 5.09" class="cls-5"/><path id="line6" d="m73.63 86.54 2.94 5.09" class="cls-5"/><path id="line7" d="m26.91 26.91 4.15 4.15" class="cls-5"/><path id="line8" d="m80.94 80.94 4.15 4.15" class="cls-5"/><path id="line9" d="m20.37 35.43 5.09 2.94" class="cls-5"/><path id="line10" d="m86.54 73.63 5.09 2.94" class="cls-5"/><path id="line11" d="m16.26 45.35 5.68 1.52" class="cls-5"/><path id="line12" d="m90.06 65.13 5.68 1.52" class="cls-5"/><path id="line13" d="M14.86 56h5.87" class="cls-5"/><path id="line14" d="M91.27 56h5.87" class="cls-5"/><path id="line15" d="m16.26 66.65 5.68-1.52" class="cls-5"/><path id="line16" d="m90.06 46.87 5.68-1.52" class="cls-5"/><path id="line17" d="m20.37 76.57 5.09-2.94" class="cls-5"/><path id="line18" d="m86.54 38.37 5.09-2.94" class="cls-5"/><path id="line19" d="m26.91 85.09 4.15-4.15" class="cls-5"/><path id="line20" d="m80.94 31.06 4.15-4.15" class="cls-5"/><path id="line21" d="m35.43 91.63 2.94-5.09" class="cls-5"/><path id="line22" d="m73.63 25.46 2.94-5.09" class="cls-5"/><path id="line23" d="m45.35 95.74 1.52-5.68" class="cls-5"/><path id="line24" d="m65.13 21.94 1.52-5.68" class="cls-5"/></g><circle id="circle24" cx="56" cy="56" r="2" class="cls-2"/></svg>